CD_DA

CATALOG "0000000000000"

// Track 1
TRACK AUDIO
NO COPY
NO PRE_EMPHASIS
TWO_CHANNEL_AUDIO
ISRC "000000000000"
SILENCE 00:00:32
FILE "data.wav" 0 03:03:10
START 00:00:32


// Track 2
TRACK AUDIO
NO COPY
NO PRE_EMPHASIS
TWO_CHANNEL_AUDIO
ISRC "000000000000"
FILE "data.wav" 03:03:10 02:05:00


// Track 3
TRACK AUDIO
NO COPY
NO PRE_EMPHASIS
TWO_CHANNEL_AUDIO
ISRC "000000000000"
FILE "data.wav" 05:08:10 01:48:25
START 00:00:45


// Track 4
TRACK AUDIO
NO COPY
NO PRE_EMPHASIS
TWO_CHANNEL_AUDIO
ISRC "000000000000"
FILE "data.wav" 06:56:35 01:30:08


// Track 5
TRACK AUDIO
NO COPY
NO PRE_EMPHASIS
TWO_CHANNEL_AUDIO
ISRC "000000000000"
FILE "data.wav" 08:26:43 03:54:70


// Track 6
TRACK AUDIO
NO COPY
NO PRE_EMPHASIS
TWO_CHANNEL_AUDIO
ISRC "000000000000"
FILE "data.wav" 12:21:38 02:31:65


// Track 7
TRACK AUDIO
NO COPY
NO PRE_EMPHASIS
TWO_CHANNEL_AUDIO
ISRC "000000000000"
FILE "data.wav" 14:53:28 03:53:30


// Track 8
TRACK AUDIO
NO COPY
NO PRE_EMPHASIS
TWO_CHANNEL_AUDIO
ISRC "000000000000"
FILE "data.wav" 18:46:58 02:16:55


// Track 9
TRACK AUDIO
NO COPY
NO PRE_EMPHASIS
TWO_CHANNEL_AUDIO
ISRC "000000000000"
FILE "data.wav" 21:03:38 01:52:20


// Track 10
TRACK AUDIO
NO COPY
NO PRE_EMPHASIS
TWO_CHANNEL_AUDIO
ISRC "000000000000"
FILE "data.wav" 22:55:58 01:47:17


// Track 11
TRACK AUDIO
NO COPY
NO PRE_EMPHASIS
TWO_CHANNEL_AUDIO
ISRC "000000000000"
FILE "data.wav" 24:43:00 05:05:63
INDEX 00:44:70


// Track 12
TRACK AUDIO
NO COPY
NO PRE_EMPHASIS
TWO_CHANNEL_AUDIO
ISRC "000000000000"
FILE "data.wav" 29:48:63 01:42:07


// Track 13
TRACK AUDIO
NO COPY
NO PRE_EMPHASIS
TWO_CHANNEL_AUDIO
ISRC "000000000000"
FILE "data.wav" 31:30:70 02:00:68


// Track 14
TRACK AUDIO
NO COPY
NO PRE_EMPHASIS
TWO_CHANNEL_AUDIO
ISRC "000000000000"
FILE "data.wav" 33:31:63 03:14:25


// Track 15
TRACK AUDIO
NO COPY
NO PRE_EMPHASIS
TWO_CHANNEL_AUDIO
ISRC "000000000000"
FILE "data.wav" 36:46:13 02:53:52


// Track 16
TRACK AUDIO
NO COPY
NO PRE_EMPHASIS
TWO_CHANNEL_AUDIO
ISRC "000000000000"
FILE "data.wav" 39:39:65 01:41:25


// Track 17
TRACK AUDIO
NO COPY
NO PRE_EMPHASIS
TWO_CHANNEL_AUDIO
ISRC "000000000000"
FILE "data.wav" 41:21:15 02:30:00


// Track 18
TRACK AUDIO
NO COPY
NO PRE_EMPHASIS
TWO_CHANNEL_AUDIO
ISRC "000000000000"
FILE "data.wav" 43:51:15 02:14:38


// Track 19
TRACK AUDIO
NO COPY
NO PRE_EMPHASIS
TWO_CHANNEL_AUDIO
ISRC "000000000000"
FILE "data.wav" 46:05:53 02:17:15


// Track 20
TRACK AUDIO
NO COPY
NO PRE_EMPHASIS
TWO_CHANNEL_AUDIO
ISRC "000000000000"
FILE "data.wav" 48:22:68 03:00:57


// Track 21
TRACK AUDIO
NO COPY
NO PRE_EMPHASIS
TWO_CHANNEL_AUDIO
ISRC "000000000000"
FILE "data.wav" 51:23:50 02:38:38

